<svg width="56" height="56" viewBox="0 0 56 56" fill="none" xmlns="http://www.w3.org/2000/svg">
<g filter="url(#filter0_d_0_777)">
<circle cx="28" cy="24" r="24" fill="#FFB577" fill-opacity="0.07"/>
<path d="M32.4063 31.1544V27.7722C32.4063 27.5479 32.324 27.3329 32.1774 27.1743C32.0309 27.0157 31.8322 26.9266 31.625 26.9266H16.7813C16.5741 26.9266 16.3753 27.0157 16.2288 27.1743C16.0823 27.3329 16 27.5479 16 27.7722V31.1544C16 31.3787 16.0823 31.5938 16.2288 31.7523C16.3753 31.9109 16.5741 32 16.7813 32H31.625C31.8322 32 32.0309 31.9109 32.1774 31.7523C32.324 31.5938 32.4063 31.3787 32.4063 31.1544ZM30.8438 30.3089H17.5625V28.6178H30.8438V30.3089ZM18.3438 24.39C18.1366 24.39 17.9378 24.479 17.7913 24.6376C17.6448 24.7962 17.5625 25.0113 17.5625 25.2355C17.5625 25.4598 17.6448 25.6748 17.7913 25.8334C17.9378 25.992 18.1366 26.0811 18.3438 26.0811H30.0625C30.2697 26.0811 30.4684 25.992 30.6149 25.8334C30.7615 25.6748 30.8438 25.4598 30.8438 25.2355C30.8438 25.0113 30.7615 24.7962 30.6149 24.6376C30.4684 24.479 30.2697 24.39 30.0625 24.39H18.3438ZM16.7813 23.5444H31.625C31.8322 23.5444 32.0309 23.4553 32.1774 23.2967C32.324 23.1382 32.4063 22.9231 32.4063 22.6988C32.4063 22.6396 32.3125 16.7799 24.2031 16.7799C16.0938 16.7799 16 22.6396 16 22.6988C16 22.9231 16.0823 23.1382 16.2288 23.2967C16.3753 23.4553 16.5741 23.5444 16.7813 23.5444ZM24.2031 18.471C28.9172 18.471 30.2852 20.6137 30.6817 21.8533H17.7246C18.1211 20.6137 19.4891 18.471 24.2031 18.471ZM40.2188 15.0888H36.193L35.5207 10.7219C35.5055 10.6108 35.4701 10.504 35.4163 10.4079C35.3626 10.3118 35.2917 10.2282 35.2078 10.1621C35.1239 10.0959 35.0287 10.0486 34.9277 10.0227C34.8267 9.99684 34.7219 9.99303 34.6195 10.0115C34.5172 10.0299 34.4192 10.0703 34.3314 10.1302C34.2436 10.1901 34.1677 10.2683 34.1081 10.3603C34.0485 10.4523 34.0065 10.5562 33.9844 10.666C33.9624 10.7758 33.9608 10.8892 33.9797 10.9997L34.609 15.0888H33.9688C33.8626 15.0888 33.7575 15.1122 33.6599 15.1577C33.5623 15.2031 33.4744 15.2696 33.4014 15.3531C33.3283 15.4366 33.2718 15.5353 33.2353 15.6433C33.1987 15.7512 33.1829 15.8661 33.1887 15.9809L33.9699 31.2009C33.9809 31.4168 34.0679 31.62 34.213 31.7686C34.3581 31.9172 34.5503 32 34.75 32H39.4375C39.6372 32 39.8294 31.9172 39.9744 31.7687C40.1195 31.6202 40.2065 31.4172 40.2176 31.2014L40.9989 15.9813C41.0046 15.8665 40.9887 15.7517 40.9521 15.6438C40.9155 15.5359 40.8589 15.4372 40.786 15.3537C40.713 15.2702 40.6251 15.2036 40.5275 15.1581C40.43 15.1125 40.325 15.089 40.2188 15.0888ZM38.6985 30.3089H35.4891L34.7946 16.7799H39.3926L38.6985 30.3089Z" fill="#FFB577"/>
</g>
<defs>
<filter id="filter0_d_0_777" x="0" y="0" width="56" height="56" filterUnits="userSpaceOnUse" color-interpolation-filters="sRGB">
<feFlood flood-opacity="0" result="BackgroundImageFix"/>
<feColorMatrix in="SourceAlpha" type="matrix" values="0 0 0 0 0 0 0 0 0 0 0 0 0 0 0 0 0 0 127 0" result="hardAlpha"/>
<feOffset dy="4"/>
<feGaussianBlur stdDeviation="2"/>
<feComposite in2="hardAlpha" operator="out"/>
<feColorMatrix type="matrix" values="0 0 0 0 0 0 0 0 0 0 0 0 0 0 0 0 0 0 0.25 0"/>
<feBlend mode="normal" in2="BackgroundImageFix" result="effect1_dropShadow_0_777"/>
<feBlend mode="normal" in="SourceGraphic" in2="effect1_dropShadow_0_777" result="shape"/>
</filter>
</defs>
</svg>
