<svg width="15" height="15" viewBox="0 0 15 15" fill="none" xmlns="http://www.w3.org/2000/svg">
<g clip-path="url(#clip0_0_633)">
<path d="M14.4444 7.22222C14.4444 3.2335 11.2109 0 7.22222 0C3.2335 0 0 3.2335 0 7.22222C0 10.827 2.64105 13.8149 6.09375 14.3567V9.3099H4.25998V7.22222H6.09375V5.63108C6.09375 3.82101 7.17201 2.82118 8.82169 2.82118C9.61162 2.82118 10.4384 2.96224 10.4384 2.96224V4.73958H9.52769C8.63056 4.73958 8.35069 5.29634 8.35069 5.86806V7.22222H10.3537L10.0335 9.3099H8.35069V14.3567C11.8034 13.8149 14.4444 10.827 14.4444 7.22222Z" fill="white"/>
</g>
<defs>
<clipPath id="clip0_0_633">
<rect width="14.4444" height="14.4444" fill="white" transform="translate(0 0.498535)"/>
</clipPath>
</defs>
</svg>
